<?xml version="1.0" encoding="UTF-8" standalone="no"?><svg xmlns="http://www.w3.org/2000/svg" xmlns:xlink="http://www.w3.org/1999/xlink" contentScriptType="application/ecmascript" contentStyleType="text/css" height="1186px" preserveAspectRatio="none" style="width:857px;height:1186px;" version="1.1" viewBox="0 0 857 1186" width="857px" zoomAndPan="magnify"><defs><filter height="300%" id="f1268xfytby1i2" width="300%" x="-1" y="-1"><feGaussianBlur result="blurOut" stdDeviation="2.0"/><feColorMatrix in="blurOut" result="blurOut2" type="matrix" values="0 0 0 0 0 0 0 0 0 0 0 0 0 0 0 0 0 0 .4 0"/><feOffset dx="4.0" dy="4.0" in="blurOut2" result="blurOut3"/><feBlend in="SourceGraphic" in2="blurOut3" mode="normal"/></filter></defs><g><text fill="#000000" font-family="sans-serif" font-size="18" lengthAdjust="spacingAndGlyphs" textLength="274" x="287.5" y="26.708">PSC Discrepancy API Diagram</text><text fill="#000000" font-family="sans-serif" font-size="18" lengthAdjust="spacingAndGlyphs" textLength="0" x="430.5" y="47.6611"/><ellipse cx="170.3906" cy="61.9063" fill="#000000" filter="url(#f1268xfytby1i2)" rx="10" ry="10" style="stroke: none; stroke-width: 1.0;"/><rect fill="#FEFECE" filter="url(#f1268xfytby1i2)" height="47.9375" rx="12.5" ry="12.5" style="stroke: #A80036; stroke-width: 1.5;" width="171" x="84.8906" y="91.9063"/><text fill="#000000" font-family="sans-serif" font-size="12" lengthAdjust="spacingAndGlyphs" textLength="151" x="94.8906" y="113.0449">POST discrepancy report</text><text fill="#000000" font-family="sans-serif" font-size="12" lengthAdjust="spacingAndGlyphs" textLength="109" x="94.8906" y="127.0137">with contact name</text><polygon fill="#FEFECE" filter="url(#f1268xfytby1i2)" points="143.3906,159.8438,197.3906,159.8438,209.3906,171.8438,197.3906,183.8438,143.3906,183.8438,131.3906,171.8438,143.3906,159.8438" style="stroke: #A80036; stroke-width: 1.5;"/><text fill="#000000" font-family="sans-serif" font-size="11" lengthAdjust="spacingAndGlyphs" textLength="54" x="143.3906" y="175.6519">valid json</text><text fill="#000000" font-family="sans-serif" font-size="11" lengthAdjust="spacingAndGlyphs" textLength="14" x="117.3906" y="169.2495">no</text><text fill="#000000" font-family="sans-serif" font-size="11" lengthAdjust="spacingAndGlyphs" textLength="21" x="209.3906" y="169.2495">yes</text><rect fill="#FEFECE" filter="url(#f1268xfytby1i2)" height="33.9688" rx="12.5" ry="12.5" style="stroke: #A80036; stroke-width: 1.5;" width="88" x="10" y="193.8438"/><text fill="#000000" font-family="sans-serif" font-size="12" lengthAdjust="spacingAndGlyphs" textLength="68" x="20" y="214.9824">note failure</text><rect fill="#FEFECE" filter="url(#f1268xfytby1i2)" height="33.9688" rx="12.5" ry="12.5" style="stroke: #A80036; stroke-width: 1.5;" width="135" x="219.2813" y="193.8438"/><text fill="#000000" font-family="sans-serif" font-size="12" lengthAdjust="spacingAndGlyphs" textLength="115" x="229.2813" y="214.9824">create in MongoDB</text><polygon fill="#FEFECE" filter="url(#f1268xfytby1i2)" points="242.7813,247.8125,330.7813,247.8125,342.7813,259.8125,330.7813,271.8125,242.7813,271.8125,230.7813,259.8125,242.7813,247.8125" style="stroke: #A80036; stroke-width: 1.5;"/><text fill="#000000" font-family="sans-serif" font-size="11" lengthAdjust="spacingAndGlyphs" textLength="88" x="242.7813" y="263.6206">failed to create</text><text fill="#000000" font-family="sans-serif" font-size="11" lengthAdjust="spacingAndGlyphs" textLength="14" x="216.7813" y="257.2183">no</text><text fill="#000000" font-family="sans-serif" font-size="11" lengthAdjust="spacingAndGlyphs" textLength="21" x="342.7813" y="257.2183">yes</text><rect fill="#FEFECE" filter="url(#f1268xfytby1i2)" height="33.9688" rx="12.5" ry="12.5" style="stroke: #A80036; stroke-width: 1.5;" width="88" x="128" y="281.8125"/><text fill="#000000" font-family="sans-serif" font-size="12" lengthAdjust="spacingAndGlyphs" textLength="68" x="138" y="302.9512">note failure</text><rect fill="#FEFECE" filter="url(#f1268xfytby1i2)" height="61.9063" rx="12.5" ry="12.5" style="stroke: #A80036; stroke-width: 1.5;" width="174" x="314.5625" y="281.8125"/><text fill="#000000" font-family="sans-serif" font-size="12" lengthAdjust="spacingAndGlyphs" textLength="142" x="324.5625" y="302.9512">PUT discrepancy report</text><text fill="#000000" font-family="sans-serif" font-size="12" lengthAdjust="spacingAndGlyphs" textLength="114" x="324.5625" y="316.9199">with email address</text><text fill="#000000" font-family="sans-serif" font-size="12" lengthAdjust="spacingAndGlyphs" textLength="154" x="324.5625" y="330.8887">and/or telephone number</text><polygon fill="#FEFECE" filter="url(#f1268xfytby1i2)" points="374.5625,363.7188,428.5625,363.7188,440.5625,375.7188,428.5625,387.7188,374.5625,387.7188,362.5625,375.7188,374.5625,363.7188" style="stroke: #A80036; stroke-width: 1.5;"/><text fill="#000000" font-family="sans-serif" font-size="11" lengthAdjust="spacingAndGlyphs" textLength="54" x="374.5625" y="379.5269">valid json</text><text fill="#000000" font-family="sans-serif" font-size="11" lengthAdjust="spacingAndGlyphs" textLength="14" x="348.5625" y="373.1245">no</text><text fill="#000000" font-family="sans-serif" font-size="11" lengthAdjust="spacingAndGlyphs" textLength="21" x="440.5625" y="373.1245">yes</text><rect fill="#FEFECE" filter="url(#f1268xfytby1i2)" height="33.9688" rx="12.5" ry="12.5" style="stroke: #A80036; stroke-width: 1.5;" width="88" x="246" y="397.7188"/><text fill="#000000" font-family="sans-serif" font-size="12" lengthAdjust="spacingAndGlyphs" textLength="68" x="256" y="418.8574">note failure</text><rect fill="#FEFECE" filter="url(#f1268xfytby1i2)" height="33.9688" rx="12.5" ry="12.5" style="stroke: #A80036; stroke-width: 1.5;" width="138" x="444.125" y="397.7188"/><text fill="#000000" font-family="sans-serif" font-size="12" lengthAdjust="spacingAndGlyphs" textLength="118" x="454.125" y="418.8574">update in MongoDB</text><rect fill="#FEFECE" filter="url(#f1268xfytby1i2)" height="47.9375" rx="12.5" ry="12.5" style="stroke: #A80036; stroke-width: 1.5;" width="162" x="432.125" y="451.6875"/><text fill="#000000" font-family="sans-serif" font-size="12" lengthAdjust="spacingAndGlyphs" textLength="142" x="442.125" y="472.8262">PUT discrepancy report</text><text fill="#000000" font-family="sans-serif" font-size="12" lengthAdjust="spacingAndGlyphs" textLength="133" x="442.125" y="486.7949">with company number</text><polygon fill="#FEFECE" filter="url(#f1268xfytby1i2)" points="486.125,519.625,540.125,519.625,552.125,531.625,540.125,543.625,486.125,543.625,474.125,531.625,486.125,519.625" style="stroke: #A80036; stroke-width: 1.5;"/><text fill="#000000" font-family="sans-serif" font-size="11" lengthAdjust="spacingAndGlyphs" textLength="54" x="486.125" y="535.4331">valid json</text><text fill="#000000" font-family="sans-serif" font-size="11" lengthAdjust="spacingAndGlyphs" textLength="14" x="460.125" y="529.0308">no</text><text fill="#000000" font-family="sans-serif" font-size="11" lengthAdjust="spacingAndGlyphs" textLength="21" x="552.125" y="529.0308">yes</text><rect fill="#FEFECE" filter="url(#f1268xfytby1i2)" height="33.9688" rx="12.5" ry="12.5" style="stroke: #A80036; stroke-width: 1.5;" width="88" x="364" y="553.625"/><text fill="#000000" font-family="sans-serif" font-size="12" lengthAdjust="spacingAndGlyphs" textLength="68" x="374" y="574.7637">note failure</text><rect fill="#FEFECE" filter="url(#f1268xfytby1i2)" height="33.9688" rx="12.5" ry="12.5" style="stroke: #A80036; stroke-width: 1.5;" width="138" x="549.25" y="553.625"/><text fill="#000000" font-family="sans-serif" font-size="12" lengthAdjust="spacingAndGlyphs" textLength="118" x="559.25" y="574.7637">update in MongoDB</text><rect fill="#FEFECE" filter="url(#f1268xfytby1i2)" height="47.9375" rx="12.5" ry="12.5" style="stroke: #A80036; stroke-width: 1.5;" width="166" x="535.25" y="607.5938"/><text fill="#000000" font-family="sans-serif" font-size="12" lengthAdjust="spacingAndGlyphs" textLength="109" x="545.25" y="628.7324">POST discrepancy</text><text fill="#000000" font-family="sans-serif" font-size="12" lengthAdjust="spacingAndGlyphs" textLength="146" x="545.25" y="642.7012">with discrepancy details</text><polygon fill="#FEFECE" filter="url(#f1268xfytby1i2)" points="591.25,675.5313,645.25,675.5313,657.25,687.5313,645.25,699.5313,591.25,699.5313,579.25,687.5313,591.25,675.5313" style="stroke: #A80036; stroke-width: 1.5;"/><text fill="#000000" font-family="sans-serif" font-size="11" lengthAdjust="spacingAndGlyphs" textLength="54" x="591.25" y="691.3394">valid json</text><text fill="#000000" font-family="sans-serif" font-size="11" lengthAdjust="spacingAndGlyphs" textLength="14" x="565.25" y="684.937">no</text><text fill="#000000" font-family="sans-serif" font-size="11" lengthAdjust="spacingAndGlyphs" textLength="21" x="657.25" y="684.937">yes</text><rect fill="#FEFECE" filter="url(#f1268xfytby1i2)" height="33.9688" rx="12.5" ry="12.5" style="stroke: #A80036; stroke-width: 1.5;" width="88" x="482" y="709.5313"/><text fill="#000000" font-family="sans-serif" font-size="12" lengthAdjust="spacingAndGlyphs" textLength="68" x="492" y="730.6699">note failure</text><rect fill="#FEFECE" filter="url(#f1268xfytby1i2)" height="33.9688" rx="12.5" ry="12.5" style="stroke: #A80036; stroke-width: 1.5;" width="138" x="641.5" y="709.5313"/><text fill="#000000" font-family="sans-serif" font-size="12" lengthAdjust="spacingAndGlyphs" textLength="118" x="651.5" y="730.6699">update in MongoDB</text><rect fill="#FEFECE" filter="url(#f1268xfytby1i2)" height="47.9375" rx="12.5" ry="12.5" style="stroke: #A80036; stroke-width: 1.5;" width="165" x="628" y="763.5"/><text fill="#000000" font-family="sans-serif" font-size="12" lengthAdjust="spacingAndGlyphs" textLength="142" x="638" y="784.6387">PUT discrepancy report</text><text fill="#000000" font-family="sans-serif" font-size="12" lengthAdjust="spacingAndGlyphs" textLength="145" x="638" y="798.6074">with status of COMPLETE</text><polygon fill="#FEFECE" filter="url(#f1268xfytby1i2)" points="683.5,831.4375,737.5,831.4375,749.5,843.4375,737.5,855.4375,683.5,855.4375,671.5,843.4375,683.5,831.4375" style="stroke: #A80036; stroke-width: 1.5;"/><text fill="#000000" font-family="sans-serif" font-size="11" lengthAdjust="spacingAndGlyphs" textLength="54" x="683.5" y="847.2456">valid json</text><text fill="#000000" font-family="sans-serif" font-size="11" lengthAdjust="spacingAndGlyphs" textLength="14" x="657.5" y="840.8433">no</text><text fill="#000000" font-family="sans-serif" font-size="11" lengthAdjust="spacingAndGlyphs" textLength="21" x="749.5" y="840.8433">yes</text><rect fill="#FEFECE" filter="url(#f1268xfytby1i2)" height="33.9688" rx="12.5" ry="12.5" style="stroke: #A80036; stroke-width: 1.5;" width="88" x="600" y="865.4375"/><text fill="#000000" font-family="sans-serif" font-size="12" lengthAdjust="spacingAndGlyphs" textLength="68" x="610" y="886.5762">note failure</text><rect fill="#FEFECE" filter="url(#f1268xfytby1i2)" height="33.9688" rx="12.5" ry="12.5" style="stroke: #A80036; stroke-width: 1.5;" width="138" x="708" y="865.4375"/><text fill="#000000" font-family="sans-serif" font-size="12" lengthAdjust="spacingAndGlyphs" textLength="118" x="718" y="886.5762">update in MongoDB</text><rect fill="#FEFECE" filter="url(#f1268xfytby1i2)" height="33.9688" rx="12.5" ry="12.5" style="stroke: #A80036; stroke-width: 1.5;" width="114" x="720" y="919.4063"/><text fill="#000000" font-family="sans-serif" font-size="12" lengthAdjust="spacingAndGlyphs" textLength="94" x="730" y="940.5449">submit to CHIPS</text><polygon fill="#FEFECE" filter="url(#f1268xfytby1i2)" points="710.5,959.375,722.5,971.375,710.5,983.375,698.5,971.375,710.5,959.375" style="stroke: #A80036; stroke-width: 1.5;"/><polygon fill="#FEFECE" filter="url(#f1268xfytby1i2)" points="618.25,989.375,630.25,1001.375,618.25,1013.375,606.25,1001.375,618.25,989.375" style="stroke: #A80036; stroke-width: 1.5;"/><polygon fill="#FEFECE" filter="url(#f1268xfytby1i2)" points="513.125,1019.375,525.125,1031.375,513.125,1043.375,501.125,1031.375,513.125,1019.375" style="stroke: #A80036; stroke-width: 1.5;"/><polygon fill="#FEFECE" filter="url(#f1268xfytby1i2)" points="401.5625,1049.375,413.5625,1061.375,401.5625,1073.375,389.5625,1061.375,401.5625,1049.375" style="stroke: #A80036; stroke-width: 1.5;"/><polygon fill="#FEFECE" filter="url(#f1268xfytby1i2)" points="286.7813,1079.375,298.7813,1091.375,286.7813,1103.375,274.7813,1091.375,286.7813,1079.375" style="stroke: #A80036; stroke-width: 1.5;"/><polygon fill="#FEFECE" filter="url(#f1268xfytby1i2)" points="170.3906,1109.375,182.3906,1121.375,170.3906,1133.375,158.3906,1121.375,170.3906,1109.375" style="stroke: #A80036; stroke-width: 1.5;"/><ellipse cx="170.3906" cy="1164.375" fill="#FFFFFF" filter="url(#f1268xfytby1i2)" rx="11" ry="11" style="stroke: #000000; stroke-width: 1.0;"/><ellipse cx="170.3906" cy="1164.375" fill="#000000" rx="6" ry="6" style="stroke: #7F7F7F; stroke-width: 1.0;"/><line style="stroke: #A80036; stroke-width: 1.5;" x1="170.3906" x2="170.3906" y1="71.9063" y2="91.9063"/><polygon fill="#A80036" points="166.3906,81.9063,170.3906,91.9063,174.3906,81.9063,170.3906,85.9063" style="stroke: #A80036; stroke-width: 1.0;"/><line style="stroke: #A80036; stroke-width: 1.5;" x1="513.125" x2="513.125" y1="431.6875" y2="451.6875"/><polygon fill="#A80036" points="509.125,441.6875,513.125,451.6875,517.125,441.6875,513.125,445.6875" style="stroke: #A80036; stroke-width: 1.0;"/><line style="stroke: #A80036; stroke-width: 1.5;" x1="618.25" x2="618.25" y1="587.5938" y2="607.5938"/><polygon fill="#A80036" points="614.25,597.5938,618.25,607.5938,622.25,597.5938,618.25,601.5938" style="stroke: #A80036; stroke-width: 1.0;"/><line style="stroke: #A80036; stroke-width: 1.5;" x1="710.5" x2="710.5" y1="743.5" y2="763.5"/><polygon fill="#A80036" points="706.5,753.5,710.5,763.5,714.5,753.5,710.5,757.5" style="stroke: #A80036; stroke-width: 1.0;"/><line style="stroke: #A80036; stroke-width: 1.5;" x1="777" x2="777" y1="899.4063" y2="919.4063"/><polygon fill="#A80036" points="773,909.4063,777,919.4063,781,909.4063,777,913.4063" style="stroke: #A80036; stroke-width: 1.0;"/><line style="stroke: #A80036; stroke-width: 1.5;" x1="671.5" x2="644" y1="843.4375" y2="843.4375"/><line style="stroke: #A80036; stroke-width: 1.5;" x1="644" x2="644" y1="843.4375" y2="865.4375"/><polygon fill="#A80036" points="640,855.4375,644,865.4375,648,855.4375,644,859.4375" style="stroke: #A80036; stroke-width: 1.0;"/><line style="stroke: #A80036; stroke-width: 1.5;" x1="749.5" x2="777" y1="843.4375" y2="843.4375"/><line style="stroke: #A80036; stroke-width: 1.5;" x1="777" x2="777" y1="843.4375" y2="865.4375"/><polygon fill="#A80036" points="773,855.4375,777,865.4375,781,855.4375,777,859.4375" style="stroke: #A80036; stroke-width: 1.0;"/><line style="stroke: #A80036; stroke-width: 1.5;" x1="644" x2="644" y1="899.4063" y2="971.375"/><line style="stroke: #A80036; stroke-width: 1.5;" x1="644" x2="698.5" y1="971.375" y2="971.375"/><polygon fill="#A80036" points="688.5,967.375,698.5,971.375,688.5,975.375,692.5,971.375" style="stroke: #A80036; stroke-width: 1.0;"/><line style="stroke: #A80036; stroke-width: 1.5;" x1="777" x2="777" y1="953.375" y2="971.375"/><line style="stroke: #A80036; stroke-width: 1.5;" x1="777" x2="722.5" y1="971.375" y2="971.375"/><polygon fill="#A80036" points="732.5,967.375,722.5,971.375,732.5,975.375,728.5,971.375" style="stroke: #A80036; stroke-width: 1.0;"/><line style="stroke: #A80036; stroke-width: 1.5;" x1="710.5" x2="710.5" y1="811.4375" y2="831.4375"/><polygon fill="#A80036" points="706.5,821.4375,710.5,831.4375,714.5,821.4375,710.5,825.4375" style="stroke: #A80036; stroke-width: 1.0;"/><line style="stroke: #A80036; stroke-width: 1.5;" x1="579.25" x2="526" y1="687.5313" y2="687.5313"/><line style="stroke: #A80036; stroke-width: 1.5;" x1="526" x2="526" y1="687.5313" y2="709.5313"/><polygon fill="#A80036" points="522,699.5313,526,709.5313,530,699.5313,526,703.5313" style="stroke: #A80036; stroke-width: 1.0;"/><line style="stroke: #A80036; stroke-width: 1.5;" x1="657.25" x2="710.5" y1="687.5313" y2="687.5313"/><line style="stroke: #A80036; stroke-width: 1.5;" x1="710.5" x2="710.5" y1="687.5313" y2="709.5313"/><polygon fill="#A80036" points="706.5,699.5313,710.5,709.5313,714.5,699.5313,710.5,703.5313" style="stroke: #A80036; stroke-width: 1.0;"/><line style="stroke: #A80036; stroke-width: 1.5;" x1="526" x2="526" y1="743.5" y2="1001.375"/><line style="stroke: #A80036; stroke-width: 1.5;" x1="526" x2="606.25" y1="1001.375" y2="1001.375"/><polygon fill="#A80036" points="596.25,997.375,606.25,1001.375,596.25,1005.375,600.25,1001.375" style="stroke: #A80036; stroke-width: 1.0;"/><line style="stroke: #A80036; stroke-width: 1.5;" x1="710.5" x2="710.5" y1="983.375" y2="1001.375"/><line style="stroke: #A80036; stroke-width: 1.5;" x1="710.5" x2="630.25" y1="1001.375" y2="1001.375"/><polygon fill="#A80036" points="640.25,997.375,630.25,1001.375,640.25,1005.375,636.25,1001.375" style="stroke: #A80036; stroke-width: 1.0;"/><line style="stroke: #A80036; stroke-width: 1.5;" x1="618.25" x2="618.25" y1="655.5313" y2="675.5313"/><polygon fill="#A80036" points="614.25,665.5313,618.25,675.5313,622.25,665.5313,618.25,669.5313" style="stroke: #A80036; stroke-width: 1.0;"/><line style="stroke: #A80036; stroke-width: 1.5;" x1="474.125" x2="408" y1="531.625" y2="531.625"/><line style="stroke: #A80036; stroke-width: 1.5;" x1="408" x2="408" y1="531.625" y2="553.625"/><polygon fill="#A80036" points="404,543.625,408,553.625,412,543.625,408,547.625" style="stroke: #A80036; stroke-width: 1.0;"/><line style="stroke: #A80036; stroke-width: 1.5;" x1="552.125" x2="618.25" y1="531.625" y2="531.625"/><line style="stroke: #A80036; stroke-width: 1.5;" x1="618.25" x2="618.25" y1="531.625" y2="553.625"/><polygon fill="#A80036" points="614.25,543.625,618.25,553.625,622.25,543.625,618.25,547.625" style="stroke: #A80036; stroke-width: 1.0;"/><line style="stroke: #A80036; stroke-width: 1.5;" x1="408" x2="408" y1="587.5938" y2="1031.375"/><line style="stroke: #A80036; stroke-width: 1.5;" x1="408" x2="501.125" y1="1031.375" y2="1031.375"/><polygon fill="#A80036" points="491.125,1027.375,501.125,1031.375,491.125,1035.375,495.125,1031.375" style="stroke: #A80036; stroke-width: 1.0;"/><line style="stroke: #A80036; stroke-width: 1.5;" x1="618.25" x2="618.25" y1="1013.375" y2="1031.375"/><line style="stroke: #A80036; stroke-width: 1.5;" x1="618.25" x2="525.125" y1="1031.375" y2="1031.375"/><polygon fill="#A80036" points="535.125,1027.375,525.125,1031.375,535.125,1035.375,531.125,1031.375" style="stroke: #A80036; stroke-width: 1.0;"/><line style="stroke: #A80036; stroke-width: 1.5;" x1="513.125" x2="513.125" y1="499.625" y2="519.625"/><polygon fill="#A80036" points="509.125,509.625,513.125,519.625,517.125,509.625,513.125,513.625" style="stroke: #A80036; stroke-width: 1.0;"/><line style="stroke: #A80036; stroke-width: 1.5;" x1="362.5625" x2="290" y1="375.7188" y2="375.7188"/><line style="stroke: #A80036; stroke-width: 1.5;" x1="290" x2="290" y1="375.7188" y2="397.7188"/><polygon fill="#A80036" points="286,387.7188,290,397.7188,294,387.7188,290,391.7188" style="stroke: #A80036; stroke-width: 1.0;"/><line style="stroke: #A80036; stroke-width: 1.5;" x1="440.5625" x2="513.125" y1="375.7188" y2="375.7188"/><line style="stroke: #A80036; stroke-width: 1.5;" x1="513.125" x2="513.125" y1="375.7188" y2="397.7188"/><polygon fill="#A80036" points="509.125,387.7188,513.125,397.7188,517.125,387.7188,513.125,391.7188" style="stroke: #A80036; stroke-width: 1.0;"/><line style="stroke: #A80036; stroke-width: 1.5;" x1="290" x2="290" y1="431.6875" y2="1061.375"/><line style="stroke: #A80036; stroke-width: 1.5;" x1="290" x2="389.5625" y1="1061.375" y2="1061.375"/><polygon fill="#A80036" points="379.5625,1057.375,389.5625,1061.375,379.5625,1065.375,383.5625,1061.375" style="stroke: #A80036; stroke-width: 1.0;"/><line style="stroke: #A80036; stroke-width: 1.5;" x1="513.125" x2="513.125" y1="1043.375" y2="1061.375"/><line style="stroke: #A80036; stroke-width: 1.5;" x1="513.125" x2="413.5625" y1="1061.375" y2="1061.375"/><polygon fill="#A80036" points="423.5625,1057.375,413.5625,1061.375,423.5625,1065.375,419.5625,1061.375" style="stroke: #A80036; stroke-width: 1.0;"/><line style="stroke: #A80036; stroke-width: 1.5;" x1="401.5625" x2="401.5625" y1="343.7188" y2="363.7188"/><polygon fill="#A80036" points="397.5625,353.7188,401.5625,363.7188,405.5625,353.7188,401.5625,357.7188" style="stroke: #A80036; stroke-width: 1.0;"/><line style="stroke: #A80036; stroke-width: 1.5;" x1="230.7813" x2="172" y1="259.8125" y2="259.8125"/><line style="stroke: #A80036; stroke-width: 1.5;" x1="172" x2="172" y1="259.8125" y2="281.8125"/><polygon fill="#A80036" points="168,271.8125,172,281.8125,176,271.8125,172,275.8125" style="stroke: #A80036; stroke-width: 1.0;"/><line style="stroke: #A80036; stroke-width: 1.5;" x1="342.7813" x2="401.5625" y1="259.8125" y2="259.8125"/><line style="stroke: #A80036; stroke-width: 1.5;" x1="401.5625" x2="401.5625" y1="259.8125" y2="281.8125"/><polygon fill="#A80036" points="397.5625,271.8125,401.5625,281.8125,405.5625,271.8125,401.5625,275.8125" style="stroke: #A80036; stroke-width: 1.0;"/><line style="stroke: #A80036; stroke-width: 1.5;" x1="172" x2="172" y1="315.7813" y2="1091.375"/><line style="stroke: #A80036; stroke-width: 1.5;" x1="172" x2="274.7813" y1="1091.375" y2="1091.375"/><polygon fill="#A80036" points="264.7813,1087.375,274.7813,1091.375,264.7813,1095.375,268.7813,1091.375" style="stroke: #A80036; stroke-width: 1.0;"/><line style="stroke: #A80036; stroke-width: 1.5;" x1="401.5625" x2="401.5625" y1="1073.375" y2="1091.375"/><line style="stroke: #A80036; stroke-width: 1.5;" x1="401.5625" x2="298.7813" y1="1091.375" y2="1091.375"/><polygon fill="#A80036" points="308.7813,1087.375,298.7813,1091.375,308.7813,1095.375,304.7813,1091.375" style="stroke: #A80036; stroke-width: 1.0;"/><line style="stroke: #A80036; stroke-width: 1.5;" x1="286.7813" x2="286.7813" y1="227.8125" y2="247.8125"/><polygon fill="#A80036" points="282.7813,237.8125,286.7813,247.8125,290.7813,237.8125,286.7813,241.8125" style="stroke: #A80036; stroke-width: 1.0;"/><line style="stroke: #A80036; stroke-width: 1.5;" x1="131.3906" x2="54" y1="171.8438" y2="171.8438"/><line style="stroke: #A80036; stroke-width: 1.5;" x1="54" x2="54" y1="171.8438" y2="193.8438"/><polygon fill="#A80036" points="50,183.8438,54,193.8438,58,183.8438,54,187.8438" style="stroke: #A80036; stroke-width: 1.0;"/><line style="stroke: #A80036; stroke-width: 1.5;" x1="209.3906" x2="286.7813" y1="171.8438" y2="171.8438"/><line style="stroke: #A80036; stroke-width: 1.5;" x1="286.7813" x2="286.7813" y1="171.8438" y2="193.8438"/><polygon fill="#A80036" points="282.7813,183.8438,286.7813,193.8438,290.7813,183.8438,286.7813,187.8438" style="stroke: #A80036; stroke-width: 1.0;"/><line style="stroke: #A80036; stroke-width: 1.5;" x1="54" x2="54" y1="227.8125" y2="1121.375"/><line style="stroke: #A80036; stroke-width: 1.5;" x1="54" x2="158.3906" y1="1121.375" y2="1121.375"/><polygon fill="#A80036" points="148.3906,1117.375,158.3906,1121.375,148.3906,1125.375,152.3906,1121.375" style="stroke: #A80036; stroke-width: 1.0;"/><line style="stroke: #A80036; stroke-width: 1.5;" x1="286.7813" x2="286.7813" y1="1103.375" y2="1121.375"/><line style="stroke: #A80036; stroke-width: 1.5;" x1="286.7813" x2="182.3906" y1="1121.375" y2="1121.375"/><polygon fill="#A80036" points="192.3906,1117.375,182.3906,1121.375,192.3906,1125.375,188.3906,1121.375" style="stroke: #A80036; stroke-width: 1.0;"/><line style="stroke: #A80036; stroke-width: 1.5;" x1="170.3906" x2="170.3906" y1="139.8438" y2="159.8438"/><polygon fill="#A80036" points="166.3906,149.8438,170.3906,159.8438,174.3906,149.8438,170.3906,153.8438" style="stroke: #A80036; stroke-width: 1.0;"/><line style="stroke: #A80036; stroke-width: 1.5;" x1="170.3906" x2="170.3906" y1="1133.375" y2="1153.375"/><polygon fill="#A80036" points="166.3906,1143.375,170.3906,1153.375,174.3906,1143.375,170.3906,1147.375" style="stroke: #A80036; stroke-width: 1.0;"/><!--MD5=[2fdb841afdb5a8cb1a3c602aeee36851]
@startuml
title PSC Discrepancy API Diagram \n

start
:POST discrepancy report\nwith contact name;
if (valid json) then (no)
    :note failure;
else (yes)
    :create in MongoDB;
    if (failed to create) then (no)
        :note failure;
    else (yes)
        :PUT discrepancy report\nwith email address\nand/or telephone number;
        if (valid json) then (no)
            :note failure;
        else (yes)
            :update in MongoDB;
            :PUT discrepancy report\nwith company number;
            if (valid json) then (no)
                :note failure;
            else (yes)
                :update in MongoDB;
                :POST discrepancy\nwith discrepancy details;
                if (valid json) then (no)
                    :note failure;
                else (yes)
                    :update in MongoDB;
                    :PUT discrepancy report\nwith status of COMPLETE;
                    if (valid json) then (no)
                        :note failure;
                    else (yes)
                        :update in MongoDB;
                        :submit to CHIPS;
                    endif
                endif
            endif
        endif
    endif
endif

stop
@enduml

PlantUML version 1.2020.09beta17(Unknown compile time)
(GPL source distribution)
Java Runtime: Java(TM) SE Runtime Environment
JVM: Java HotSpot(TM) 64-Bit Server VM
Java Version: 14.0.1+7
Operating System: Linux
Default Encoding: UTF-8
Language: en
Country: US
--></g></svg>